<svg width="1122" height="950" viewBox="0 0 1122 950" fill="none" xmlns="http://www.w3.org/2000/svg">
<g opacity="0.1">
<path fill-rule="evenodd" clip-rule="evenodd" d="M497.242 53.7372C836.242 224.737 868.637 -87.6791 1016 180.737C1163.36 449.153 773.242 573.737 1047.24 752.737C1321.24 931.737 760.242 1052.74 565.242 824.737C370.242 596.737 172.69 830.831 34.1152 734.663C-104.46 638.495 233.242 386.737 92.242 275.737C-48.758 164.737 158.242 -117.263 497.242 53.7372Z" fill="url(#paint0_linear_0_1269)"/>
<mask id="mask0_0_1269" style="mask-type:alpha" maskUnits="userSpaceOnUse" x="0" y="0" width="1122" height="950">
<path fill-rule="evenodd" clip-rule="evenodd" d="M497.242 53.7372C836.242 224.737 868.637 -87.6791 1016 180.737C1163.36 449.153 773.242 573.737 1047.24 752.737C1321.24 931.737 760.242 1052.74 565.242 824.737C370.242 596.737 172.69 830.831 34.1152 734.663C-104.46 638.495 233.242 386.737 92.242 275.737C-48.758 164.737 158.242 -117.263 497.242 53.7372Z" fill="white"/>
</mask>
<g mask="url(#mask0_0_1269)">
<ellipse cx="724.072" cy="566.017" rx="189.83" ry="278.28" fill="#673AB7"/>
<ellipse cx="558.023" cy="471.084" rx="215.781" ry="489.347" transform="rotate(41 558.023 471.084)" fill="url(#paint1_linear_0_1269)"/>
<ellipse cx="946.742" cy="397.237" rx="191.5" ry="380.5" fill="url(#paint2_linear_0_1269)"/>
<ellipse cx="352.57" cy="429.752" rx="215.781" ry="489.347" transform="rotate(41 352.57 429.752)" fill="#B2EBF2"/>
<ellipse cx="218.743" cy="287.501" rx="137.8" ry="289.467" transform="rotate(41 218.743 287.501)" fill="url(#paint3_linear_0_1269)"/>
<ellipse cx="127.242" cy="163.237" rx="118" ry="207" transform="rotate(41 127.242 163.237)" fill="#D1C4E9"/>
<ellipse cx="392.575" cy="824.653" rx="202.333" ry="183.915" transform="rotate(92 392.575 824.653)" fill="#E91E63"/>
</g>
</g>
<defs>
<linearGradient id="paint0_linear_0_1269" x1="535.794" y1="-687.751" x2="-406.931" y2="715.269" gradientUnits="userSpaceOnUse">
<stop stop-color="#00BCD4"/>
<stop offset="1" stop-color="#B2EBF2"/>
<stop offset="1" stop-color="#D1C4E9"/>
</linearGradient>
<linearGradient id="paint1_linear_0_1269" x1="290.653" y1="-46.1695" x2="-12.9552" y2="910.646" gradientUnits="userSpaceOnUse">
<stop stop-color="#00BCD4"/>
<stop offset="1" stop-color="#673AB7"/>
</linearGradient>
<linearGradient id="paint2_linear_0_1269" x1="614.689" y1="620.611" x2="1212.95" y2="794.619" gradientUnits="userSpaceOnUse">
<stop stop-color="#E91E63"/>
<stop offset="1" stop-color="#F8BBD0"/>
</linearGradient>
<linearGradient id="paint3_linear_0_1269" x1="188.415" y1="-290.235" x2="-220.273" y2="28.6832" gradientUnits="userSpaceOnUse">
<stop stop-color="#00BCD4"/>
<stop offset="1" stop-color="#673AB7"/>
</linearGradient>
</defs>
</svg>
